<svg fill="none" height="50" viewBox="0 0 215 50" width="215" xmlns="http://www.w3.org/2000/svg"><g fill="#1ac270"><path d="m70.416 25.4353c-.4501.7691-2.3822 2.8324-6.0774 3.3576-.0375 1.088-.0375 1.8195-.0375 1.9883 0 .5628-.2064.9754-.6566.9754h-2.626c-.3564 0-.8441-.1688-.8066-.9379.0375-.3188.1125-1.1254.2063-2.0258-1.1254-.1688-2.3071-.4502-3.6389-.9003-1.5382-.5253-2.9075-1.2943-4.0892-2.2697-1.8195 2.8699-3.9766 4.9332-6.2275 5.7023-1.707.6002-3.2826.8816-4.6519.8816-3.4889 0-5.8336-1.7069-6.6402-3.7703-.2063-.5252-.2814-1.0504-.2814-1.5006 0-1.9883 1.5757-3.2451 2.7199-3.2451 1.5381 0 2.0633 1.013 1.9508 1.8946-.1126.8441-.7316 1.2942-.9754 2.0633-.2439.7316-.1688 2.551 1.9883 3.0387.4127.0751.8441.1126 1.2943.1126 2.1008 0 4.8207-1.0129 6.809-4.5394.5252-.9378 1.0129-2.0633 1.5381-3.3576-.9379-1.3318-1.4256-2.7573-1.4256-4.0891 0-.9754.2439-1.857.8441-2.6636.8066-1.0504 1.9508-1.4631 3.1138-1.4631.6565-2.6636 1.0879-5.13958 1.1254-6.84652.1126-4.40804-1.0129-6.03995-3.5639-6.47137-2.476-.450185-6.7527 1.57564-8.0095 5.73982-.3189 1.01291-.4502 1.857-.4502 2.58855 0 2.06332 1.088 2.90742 2.1009 3.20752 1.3318.3189 3.2825-.4126 3.6765-1.2192.2063-.4127.4876-.5627.769-.5252.2439.075.4502.4126.4127.9754-.1126 2.1383-2.0634 4.7456-4.7832 4.7456-.4127 0-.8441-.075-1.2943-.2063-2.1008-.6002-3.9203-2.8324-3.9203-5.8711 0-1.85702.694-3.97663 2.382-6.22754 2.4197-3.1888 6.0399-4.57686 9.0599-4.57686 1.0129 0 1.9883.168818 2.7949.450182 2.5885.975398 4.5769 3.038738 4.5769 8.103288 0 1.42558-.1689 3.07623-.4877 4.97073-.1689.8441-.3189 1.6507-.5253 2.4198.9754.6002 1.8195 1.3693 2.3447 2.1008 1.2568 1.7445 1.7445 2.8699 1.9508 3.8453.0751.4127.2439.5627.2814-.0375.075-.6565.6565-6.3213 2.7574-11.7798 2.1008-5.45843 4.408-7.48425 5.2146-8.25331.4126-.35639.9379-.41267 1.1817-.20634.2439.20634.2814.65652-.2063 1.25676-.9754 1.25676-3.1513 4.40804-4.4456 11.98609-.8441 4.8582-1.1817 9.754-1.2942 12.8302.9378-.1688 1.7819-.4126 2.4197-.7315 1.9508-.9754 2.3447-1.9883 2.7949-2.5886.2813-.3564.694-.3564.8816-.075.2063.2063.2438.5627-.0751 1.0879zm-19.883-8.2908c-.3564.5252-.5627 1.1254-.5627 1.8194 0 .7691.2438 1.6132.769 2.5136.6003-1.707 1.1817-3.564 1.6507-5.421-.7691.1126-1.4631.4877-1.857 1.088zm7.4843 1.7444c-.5252-.7315-1.1255-1.2568-1.707-1.7069-.769 2.7198-1.7444 5.1396-2.9074 7.2404.2063.2063.4877.3564.7315.5627 2.1384 1.5006 4.333 2.3447 6.3589 2.6636.0375-.8066.075-1.5756.075-2.0258-.075-1.2943-.3564-4.0517-2.551-6.7528z"/><path d="m83.34 30.5374c-.694.694-1.8195 1.5756-3.4889 1.3318-1.4256-.2064-2.2697-1.3693-2.5135-3.2076-1.4631 2.3072-4.0892 3.639-6.3213 3.2076-1.6695-.3564-3.4327-2.0634-3.4327-4.7832 0-1.0505.2439-2.2697.8816-3.564 1.707-3.5264 4.8207-4.9332 6.9966-4.9332.694 0 1.2943.1125 1.7445.4126.8066.4877 1.2567 1.088 1.5381 1.5757.2814-.6003.5252-1.0504.694-1.2943.5628-.6002 1.0505-.6565 1.5006-.6002.4877.0375 1.1255.2063 1.0505.6002-.2439 1.088-.9754 3.3951-1.3693 5.5147-.2439 1.2568-.5253 3.0013-.5253 4.2017 0 .8066.1126 1.3694.4502 1.5382.8066.4126 2.1009-.7316 2.9074-1.707.6941-.8441 1.088-1.5756 1.3694-2.1383.2813-.5628 1.1817-.3189.769.5627-.4502.9004-1.4256 2.476-2.2697 3.2826zm-6.9591-10.6919c-2.5885-.7315-4.1266 3.0013-4.7456 5.346-.3189 1.2192-.6003 2.5135-.6003 3.5639s.2814 1.8195 1.0129 2.0258c1.6507.4877 3.2826-1.1817 4.333-2.7949.4502-.694.7691-1.3317 1.013-1.8945.1125-1.1817.4126-2.3822.7315-3.5264-.0375-1.0129-.4127-2.3072-1.7445-2.7199z"/><path d="m97.9898 29.8058c-1.013.9754-2.2322 1.9883-4.8583 2.0633-1.857.0376-4.2017-1.3317-5.5522-1.2942-1.2943.075-1.5381.4502-1.782.6002-.1125.075-.3564.0375-.5252-.1688-.1688-.1688-.2438-.4877 0-.9379.4877-.9004 2.0258-2.7198 3.9766-4.333 1.9508-1.6131 4.333-3.2826 4.6144-3.3951.1125-.075.2063-.2064.1688-.2439-.0375-.075-.1125-.075-.2814-.075-.3563.075-.8441.2063-1.6694 0s-2.3447-.9754-3.1137-1.2192c-.6003-.2064-1.2193-.3189-1.707.0375-.4127.2813-.4502 1.0879-.075 1.3318.4127.2813.9379 1.4255.0375 1.9508-.7691.4501-1.6694.075-1.8945-.8441-.2439-1.088.4877-2.7949 1.6131-3.6015 1.2193-.9754 2.8699-1.2192 4.1267-1.0504 1.4631.2063 2.2697 1.2192 3.7703 1.2567 1.5381.0376 1.8195-.4126 2.1946-.6002.2064-.1126.4877-.075.694.0375.2064.1126.2814.3189.0751.6003-.4502.6002-3.2076 3.8077-4.6519 4.7831s-4.0516 2.87-4.333 3.1513c-.2063.2063-.2439.2814-.1688.2814.0375.0375.1125 0 .2063-.0375.2439-.0751.8066-.0751 1.5381.075.7691.1125 3.3201 1.0879 4.5769 1.0879.8066.0376 1.782-.1125 2.6636-.8065.5252-.4127.8441-1.013 1.0504-1.3693.1125-.3189.4502-.4877.694-.4877.2439.0375.4502.2438.2814.7315-.3564.8816-.9379 1.782-1.6507 2.476z"/><path d="m114.14 27.6487c-.488 1.088-2.476 3.1888-5.065 4.6519-.075.3564-.112.7691-.206 1.088-.844 5.4209-2.026 8.3471-3.395 10.2791-1.05 1.4631-2.757 2.6261-4.333 2.6261-.525 0-1.013-.1126-1.5006-.4127-1.0129-.6002-1.4631-1.7444-1.4631-3.0762s.4126-2.7574 1.2567-4.1642c1.426-2.3447 4.014-4.4456 6.678-5.9462.45-2.5885.769-4.6894.806-4.9332.038-.2439 0-.3189-.037-.3564-.075-.0375-.169.075-.244.2438-.319.5627-2.87 4.6519-5.796 4.2017-1.9885-.3189-2.6637-2.1946-2.6637-4.3705 0-.9754.1688-2.0258.3564-3.0387.5627-2.6636 1.4631-5.2709 1.8573-5.5148.356-.2813.6-.3188 1.181-.3188.582 0 1.37.4501 1.257.9754-.112.4877-1.013 4.1266-1.294 5.5522-.206.9754-.657 2.8699-.657 4.1642 0 .694.113 1.1817.451 1.2943.937.4126 2.757-.4502 4.445-3.3201 1.745-2.8324 2.382-7.278 2.382-7.6531 0-.4127.563-.8066 1.426-.7691s1.707.075 1.576.8441c-.075.6565-1.182 6.6777-1.895 11.3296 2.063-1.2568 3.395-2.8324 4.052-4.0141.356-.6941.731-.7316.881-.4877.113.2063.113.6002-.075 1.0879zm-13.637 11.9486c-.6563 1.4256-.9752 2.6636-.9752 3.639s.3189 1.6131.8442 1.857c1.257.5252 3.358-.4502 4.37-5.1021.413-1.7819.807-3.9766 1.182-5.9837-2.345 1.4256-4.408 3.3577-5.421 5.5898z"/><path d="m155.876 26.8796c-.657 1.3318-1.745 2.7949-2.514 3.5264-.769.7316-2.382 1.8946-4.258 1.5006-2.138-.4501-2.795-2.7573-2.795-5.3834 0-.4502 0-.9003.038-1.3693.244-3.1888 2.269-10.6543 2.757-12.8677.244-1.0504.488-2.1009.488-3.00122 0-.9754-.319-1.70694-1.294-1.74446-1.426-.03751-3.808 3.11378-5.177 5.45848-.563.9754-1.295 2.5135-1.951 4.0891-.282 2.0634-.601 4.0517-.844 5.2147-.488 2.7948-1.295 7.9719-1.426 8.5347-.075.5627-.525.8065-.882.8065-.356 0-2.025.1689-2.419.1126-.413-.075-1.088-.2063-.769-1.1817.281-.9754 1.65-7.3343 2.588-12.0987.6-3.2451 1.538-7.4468 1.538-10.07283 0-1.25676-.206-2.13836-.769-2.38221-1.538-.65652-3.676 2.06333-4.971 4.50184-.937 1.7069-2.1 4.6144-3.001 6.9215-1.088 5.5148-2.476 12.305-2.588 12.8302-.169.7691-.525 1.2193-1.051 1.2568-.487.0375-2.419.0375-2.907.0375-.525 0-.901-.2438-.413-1.5756s2.514-9.1162 3.602-14.6122c.562-2.7949 1.219-5.94616 1.219-8.53471s-.563-4.37052-2.307-4.97077c-.488-.16881-1.051-.24384-1.576-.24384-2.832 0-6.04 2.19464-7.053 5.3084-.319 1.05042-.487 1.95079-.487 2.71985 0 1.98827.975 3.03877 2.269 3.35757 1.782.4502 3.32-.769 3.77-1.2942.207-.2064.357-.2814.526-.2814.244 0 .45.2814.487.8441.113 1.0879-1.05 4.5393-4.576 4.5393-3.152.0376-5.215-2.5885-5.215-5.9461 0-1.95081.694-4.08918 2.232-6.15252 2.27-2.9637 6.04-4.576856 9.36-4.576856 1.219 0 2.382.243851 3.395.694033 2.382 1.125453 3.039 3.526433 3.039 6.039943 0 1.42558-.244 2.86992-.45 4.1267-.038.2438-.075.5252-.169.8441.488-.8816.975-1.8195 1.426-2.58858 1.65-2.71985 4.089-5.21461 6.471-4.6894 2.382.56273 2.87 2.86991 2.795 5.38343-.038.76905-.169 1.98835-.319 3.32005.413-.7315.806-1.4255 1.182-1.9507 1.256-1.89456 3.489-5.58981 6.809-4.85826 3.207.69403 3.245 4.44556 3.151 5.87116-.169 3.6765-1.988 9.5476-2.72 12.2674-.356 1.4256-.806 3.2451-.806 4.5019 0 .8065.168 1.3693.656 1.5381 1.219.3564 2.307-.694 3.283-1.7445.844-.9378 1.575-2.3447 1.857-2.7949.168-.2438.6-.4126.806-.2438.169.1688.282.4502 0 1.0504z"/><path d="m168.518 30.8938c-1.125.5627-2.626.8441-3.958.8441-.731 0-1.369-.0751-1.95-.2439-.451.2439-1.501.4127-1.951.4127-4.089.1688-6.321-2.6261-6.321-5.5523.037-4.408 3.957-7.7281 7.821-7.8219 4.371-.075 5.909 2.8324 5.872 5.421-.038 2.3071-1.501 4.8582-3.602 6.4338 1.126.2814 2.626.1126 3.808-.6002 1.538-.8816 2.382-2.3072 2.757-3.0013.169-.3188.563-.4501.807-.3563.244.1125.356.4126.112.844-.487.9754-1.575 2.6261-3.395 3.6015zm-3.564-7.1279c0-2.7949-1.294-4.0517-2.87-4.1267-1.819-.0375-3.732 1.5381-4.164 5.5523-.075.6565-.112 1.2192-.112 1.7444 0 2.7949.975 3.9204 2.588 3.8828 1.651 0 3.846-1.4631 4.446-5.4209.075-.5627.112-1.1255.112-1.6132z"/><path d="m184.556 30.8938c-1.125.5627-2.626.8441-3.958.8441-.731 0-1.369-.0751-1.951-.2439-.45.2439-1.5.4127-1.95.4127-4.09.1688-6.322-2.6261-6.322-5.5523.038-4.408 3.958-7.7281 7.822-7.8219 4.371-.075 5.909 2.8324 5.871 5.421-.037 2.3071-1.5 4.8582-3.601 6.4338 1.125.2814 2.626.1126 3.808-.6002 1.538-.8816 2.382-2.3072 2.757-3.0013.169-.3188.563-.4501.807-.3563.243.1125.356.4126.112.844-.488.9754-1.576 2.6261-3.395 3.6015zm-3.564-7.1279c0-2.7949-1.294-4.0517-2.87-4.1267-1.819-.0375-3.733 1.5381-4.164 5.5523-.075.6565-.113 1.2192-.113 1.7444 0 2.7949.976 3.9204 2.589 3.8828 1.651 0 3.845-1.4631 4.445-5.4209.076-.5627.113-1.1255.113-1.6132z"/><path d="m196.13 30.8562c-1.126.5253-3.039 1.1255-4.54.8817-.319.0375-.656.075-1.013.075-3.526-.1126-5.271-4.0141-4.539-5.9087.206-.4877.525-.8441.882-.9754.562-.694 1.181-1.5381 1.744-2.3447.844-1.2192 1.613-2.7573 1.707-3.1512.112-.4127-.244-.8816-.038-1.5757.207-.7315.807-1.2567 1.501-1.0504.694.1688.844.694.807 1.1817-.075.4502-.563 1.0505-.732 1.2568-.169.1688-.206.3564 0 .5627.206.2439.844 1.2193 1.613 2.0258.769.8066 2.345 2.2322 2.589 4.4456.112 1.2192-.563 2.8699-1.782 4.0516.487-.075 1.05-.2438 1.575-.5627 1.37-.7691 2.42-1.9883 2.795-2.5885.319-.6003 1.22-.4127.769.4877-.487.8816-2.1 2.626-3.357 3.1887zm-4.971-9.9602c-.207-.1689-.413-.0376-.563.3188-.6 1.2568-1.613 2.7949-2.307 3.564-.169.1688-.207.3189.075.3189.563.0375 1.125.8065.975 1.7819-.169.8816-1.013 1.6132-1.181 1.857-.207.2064-.207.4127 0 .6003.168.2438.562.8441 1.463 1.0129 1.538.2438 2.588-1.3318 2.907-2.1384.206-.4877.356-1.3693.356-2.3072 0-.6565-.075-1.2942-.243-1.8945-.451-1.5006-1.295-2.8699-1.501-3.1137z"/><path d="m209.279 30.9688c-1.426.694-3.002 1.0504-4.446 1.0504-1.576 0-3.076-.4126-4.258-1.1817-2.27-1.4631-2.589-3.5639-2.382-5.027.45-3.1888 2.588-5.0646 4.614-6.19 1.051-.5628 2.626-1.0129 4.052-1.0129 1.294 0 2.476.3564 3.076 1.3317.244.4127.413.8441.413 1.3318 0 1.8195-1.82 3.9204-4.821 5.3835-1.613.8065-3.001 1.2192-3.77 1.3693.244 1.4256 1.013 2.1383 1.819 2.476.657.2813 1.219.4126 1.857.4126 1.013 0 2.101-.3564 3.564-1.0879 1.857-.9379 3.151-2.7574 3.395-3.3576.169-.2814.488-.2814.657-.075.169.2063.206.5252 0 .8816-.45.8441-1.294 2.476-3.77 3.6765zm-7.335-6.4338c-.244.9378-.319 1.7069-.319 2.3822.938-.1126 2.476-.4877 3.677-1.5006 1.219-1.0505 2.063-2.8324 2.063-4.1267 0-.6002-.206-1.1255-.694-1.3318-1.5-.694-3.883.8066-4.745 4.5769z"/><path d="m44.0992 38.1154-.6002 1.6695c-1.4444-.9379-3.0388-1.4444-4.4644-1.4444-2.5135 0-4.2579 1.8945-4.2579 4.7645 0 2.8699 1.7444 4.7644 4.2579 4.7831 1.4256 0 3.0388-.5252 4.4831-1.463l.6003 1.6694c-1.5944 1.238-3.5077 1.8757-5.1584 1.8757-3.9578 0-6.5651-3.0575-6.5651-6.8465s2.6073-6.884 6.5651-6.8465c1.6694 0 3.5452.6377 5.1396 1.857z"/><path d="m49.3701 44.5868v5.1208h-2.3072v-13.1866h6.0962c2.1009 0 3.8829 1.5944 3.8641 4.0329 0 1.8758-1.0504 3.2451-2.4948 3.7891l3.1513 5.3646h-2.6448l-2.7199-5.1208zm3.6953-1.9133c.9003 0 1.6694-.7503 1.6694-2.1196 0-1.3505-.7691-2.1008-1.6694-2.1008h-3.6953v4.2204z"/><path d="m68.7467 49.7076-1.0317-2.8136h-5.8524l-1.0317 2.8136h-2.4572l5.1396-13.1866h2.5698l5.1396 13.1866h-2.4573zm-1.7257-4.7269-2.251-6.0962-2.2509 6.0962h4.4831z"/><path d="m75.0305 42.2234h5.6085v1.9132h-5.6085v5.571h-2.2884v-13.1866h8.6472v1.9133h-6.34v3.7891z"/><path d="m89.5864 38.4343v11.2733h-2.3072v-11.2733h-4.1079v-1.9133h10.523v1.9133z"/><path d="m125.882 38.1154-.6 1.6694c-1.444-.9378-3.039-1.4443-4.464-1.4443-2.514 0-4.258 1.8945-4.258 4.7644 0 2.87 1.744 4.7645 4.258 4.7832 1.425 0 3.038-.5252 4.483-1.4631l.6 1.6695c-1.594 1.238-3.508 1.8757-5.158 1.8757-3.958 0-6.565-3.0575-6.565-6.8465s2.607-6.884 6.565-6.8465c1.669 0 3.545.6377 5.139 1.857z"/><path d="m137.662 49.7076-1.031-2.8136h-5.853l-1.032 2.8136h-2.457l5.14-13.1866h2.57l5.139 13.1866h-2.457zm-1.726-4.7269-2.25-6.0962-2.251 6.0962h4.483z"/><path d="m153.531 49.7076h-2.044l-6.941-9.2662v9.2662h-2.269v-13.1866h2.044l6.94 9.3038v-9.3038h2.27z"/><path d="m168.049 49.7076h-2.044l-6.94-9.2662v9.2662h-2.27v-13.1866h2.044l6.941 9.3038v-9.3038h2.269z"/><path d="m180.955 49.7076-1.032-2.8136h-5.852l-1.032 2.8136h-2.457l5.139-13.1866h2.57l5.14 13.1866h-2.458zm-1.726-4.7269-2.251-6.0962-2.251 6.0962h4.483z"/><path d="m196.43 45.8623c0 2.326-1.82 3.8453-4.071 3.8453h-3.995-2.289v-13.1866h5.665c2.082 0 3.771 1.4069 3.752 3.5265 0 1.1442-.544 2.0446-1.37 2.5885 1.37.4502 2.345 1.6132 2.326 3.2076zm-8.066-3.9203h3.076c.957 0 1.688-.6378 1.688-1.7632 0-1.1255-.712-1.7632-1.688-1.7632h-3.076v3.5452zm3.751 1.8382h-3.751v4.0517h3.751c1.107 0 1.97-.7503 1.97-2.0258 0-1.2756-.844-2.0071-1.97-2.0071z"/><path d="m199.431 49.7076v-13.1866h2.288v13.1866z"/><path d="m214.737 37.9466-1.257 1.5569c-.863-.6941-2.044-1.1818-3.545-1.1818-1.5 0-2.476.5065-2.513 1.857 0 .8629.412 1.163 2.945 1.857 2.007.544 4.614 1.1255 4.633 3.9016.037 2.8324-2.72 4.0517-5.065 4.0517-1.988 0-4.127-.8629-5.233-2.2322l1.275-1.5006c.901 1.1067 2.589 1.7069 3.958 1.6882 1.538 0 2.701-.7128 2.701-1.9321 0-1.2004-1.05-1.4068-2.945-1.932-3.264-.9004-4.633-1.6507-4.633-3.8265 0-2.9075 2.457-3.9579 4.915-3.9579 1.95 0 3.639.6753 4.783 1.6882z"/><path d="m16.4505 13.7306h-8.4597v24.4599h8.4597z"/><path d="m24.4599 30.181v-8.4597h-24.4599v8.4597z"/></g></svg>
